<?xml version="1.0" standalone="no"?><!DOCTYPE svg PUBLIC "-//W3C//DTD SVG 1.1//EN" "http://www.w3.org/Graphics/SVG/1.1/DTD/svg11.dtd"><svg t="1637651187658" class="icon" viewBox="0 0 1024 1024" version="1.1" xmlns="http://www.w3.org/2000/svg" p-id="6091" xmlns:xlink="http://www.w3.org/1999/xlink" width="200" height="200"><defs><style type="text/css"></style></defs><path d="M270.336 290.75968h95.232c9.556992 0 17.408 3.072 23.552 9.216s9.216 13.824 9.216 23.04-3.072 16.896-9.216 23.04-13.995008 9.556992-23.552 10.24H212.992c-9.556992-0.683008-17.408-4.096-23.552-10.24s-9.216-13.652992-9.216-22.528v-152.576c0-9.556992 3.072-17.408 9.216-23.552s13.995008-9.216 23.552-9.216 17.408 3.072 23.552 9.216 9.216 13.995008 9.216 23.552v51.2c58.708992-52.564992 125.780992-85.163008 201.216-97.792 75.435008-12.628992 149.675008-3.584 222.72 27.136 72.363008 32.768 129.536 81.236992 171.52 145.408s63.316992 135.851008 64 215.04c-2.731008 111.275008-41.131008 203.947008-115.2 278.016S623.275008 902.428672 512 905.15968c-111.275008-2.731008-203.947008-41.131008-278.016-115.2S121.515008 623.218688 118.784 511.94368h65.536c2.048 92.843008 33.963008 170.155008 95.744 231.936s139.092992 93.696 231.936 95.744c92.843008-2.048 169.984-33.963008 231.424-95.744s93.524992-139.092992 96.256-231.936c-0.683008-68.948992-19.796992-130.56-57.344-184.832s-88.064-94.379008-151.552-120.32c-64.171008-23.892992-128.512-28.500992-193.024-13.824-64.512 14.676992-120.32 47.275008-167.424 97.792z" p-id="6092"></path></svg>