<?xml version="1.0" standalone="no"?><!DOCTYPE svg PUBLIC "-//W3C//DTD SVG 1.1//EN" "http://www.w3.org/Graphics/SVG/1.1/DTD/svg11.dtd"><svg t="1624414655438" class="icon" viewBox="0 0 1024 1024" version="1.1" xmlns="http://www.w3.org/2000/svg" p-id="3388" xmlns:xlink="http://www.w3.org/1999/xlink" width="200" height="200"><defs><style type="text/css"></style></defs><path d="M276.096 152a40 40 0 0 1 1.736 79.96l-1.736 0.04h-37.888c-17.936 0-29.664 4.504-37.616 13.168l-2.16 2.456c-7.896 8.696-12.544 22.928-12.936 43.848l-0.024 2.896v149.504c0 25.576-5.368 47.824-16.816 65.584l-1.688 2.52 0.272 0.384c11.824 17.152 17.704 39.032 18.192 64.296l0.04 3.472v150.24c0 21.32 4.176 35.488 11.888 44.768l2.12 2.432c7.6 9.056 18.856 13.976 36.208 14.4l2.52 0.032h37.888a40 40 0 0 1 1.736 79.96l-1.736 0.04h-37.888c-40.088 0-73.952-13.512-97.92-40.592l-1.568-1.816-1.616-1.824c-20.992-24.376-30.984-55.84-31.6-93.6l-0.032-3.8v-150.24c0-12.72-2.176-20.144-4.088-22.4-1.096-1.256-9.008-4.032-24.552-5.808l-4.432-0.456c-49.304-4.576-47.976-77 1.456-79.768 17.408-0.976 26.24-3.944 27.256-5.12 2.056-2.416 4.104-9.12 4.336-20.512l0.024-2.192V294.368c0-39.616 9.968-72.944 31.632-98.136l1.672-1.904 1.504-1.736c23.272-26.288 55.856-39.784 94.408-40.56l3.52-0.032h37.888z m505.792 0l3.52 0.032c38.56 0.776 71.136 14.272 94.4 40.56l1.512 1.736 1.672 1.904c21.656 25.192 31.632 58.52 31.632 98.136v149.504l0.024 2.192c0.24 11.384 2.28 18.096 4.336 20.512 1.016 1.176 9.84 4.144 27.256 5.12 49.44 2.768 50.76 75.2 1.456 79.76l-4.432 0.464c-15.544 1.776-23.464 4.56-24.552 5.808-1.92 2.256-4.08 9.68-4.08 22.4v150.24l-0.04 3.792c-0.616 37.776-10.608 69.232-31.6 93.6l-1.616 1.832-1.56 1.816c-23.976 27.08-57.84 40.592-97.928 40.592H744l-1.736-0.04A40 40 0 0 1 744 792h37.888l2.52-0.032c17.352-0.424 28.608-5.344 36.208-14.4l2.12-2.432c7.712-9.28 11.888-23.448 11.888-44.768v-150.24l0.032-3.472c0.496-25.264 6.368-47.144 18.192-64.296l0.28-0.384-1.688-2.52c-11.448-17.76-16.816-40.008-16.816-65.584V294.368l-0.024-2.896c-0.392-20.92-5.04-35.152-12.944-43.84l-2.152-2.464c-7.952-8.664-19.68-13.168-37.616-13.168H744l-1.736-0.04A40 40 0 0 1 744 152h37.888zM336 624a48 48 0 1 1 0 96 48 48 0 0 1 0-96z m176 0a48 48 0 1 1 0 96 48 48 0 0 1 0-96z m176 0a48 48 0 1 1 0 96 48 48 0 0 1 0-96z" p-id="3389"></path></svg>